<svg width="50" height="50" viewBox="0 0 50 50" fill="none" xmlns="http://www.w3.org/2000/svg">
    <path d="M22.9167 14.5833H27.0833V18.75H22.9167V14.5833Z" fill="#E0E0E0"/>
    <path d="M22.9167 22.9167H27.0833V35.4167H22.9167V22.9167Z" fill="#E0E0E0"/>
    <path fill-rule="evenodd" clip-rule="evenodd" d="M4.16666 25C4.16666 13.5 13.5 4.16666 25 4.16666C36.5 4.16666 45.8333 13.5 45.8333 25C45.8333 36.5 36.5 45.8333 25 45.8333C13.5 45.8333 4.16666 36.5 4.16666 25ZM8.33333 25C8.33333 34.1875 15.8124 41.6667 25 41.6667C34.1876 41.6667 41.6667 34.1875 41.6667 25C41.6667 15.8125 34.1876 8.33332 25 8.33332C15.8124 8.33332 8.33333 15.8125 8.33333 25Z" fill="#E0E0E0"/>
    </svg>
