<svg width="41" height="37" viewBox="0 0 41 37" fill="none" xmlns="http://www.w3.org/2000/svg">
    <path fill-rule="evenodd" clip-rule="evenodd" d="M34.7475 4.67125L35.0208 4.625C35.4992 4.625 35.875 4.96417 35.875 5.39583V28.7058C35.875 29.0604 35.6187 29.3379 35.26 29.4458L25.625 32.375L15.375 29.1375L6.2525 32.3287L5.97917 32.375C5.50083 32.375 5.125 32.0358 5.125 31.6042V8.29417C5.125 7.93958 5.38125 7.66208 5.74 7.55417L15.375 4.625L25.625 7.8625L34.7475 4.67125ZM23.9167 10.5913L17.0833 8.43292V26.4088L23.9167 28.5671V10.5913ZM8.54167 9.95916L13.6667 8.40208V26.4396L8.54167 28.2279V9.95916ZM27.3333 28.5979L32.4583 27.0408V8.7875L27.3333 10.5758V28.5979Z" fill="#E0E0E0" />
</svg>
