<svg width="120" height="120" viewBox="0 0 120 120" fill="none" xmlns="http://www.w3.org/2000/svg">
    <path d="M62 16C30.4 15.6 17.5 43.1667 15 57H105.5C104.167 43.5 93.6 16.4 62 16Z" fill="#000017" fill-opacity="0.6" />
    <path fill-rule="evenodd" clip-rule="evenodd" d="M73.8981 39.6C73.3106 39.6 72.6996 39.84 72.2531 40.296L67.9526 44.688L76.7651 53.688L81.0656 49.296C81.9821 48.36 81.9821 46.848 81.0656 45.912L75.5666 40.296C75.0966 39.816 74.5091 39.6 73.8981 39.6ZM65.4381 54.048L67.6001 56.256L46.3091 78H44.1471V75.792L65.4381 54.048ZM39.4471 73.8L65.4381 47.256L74.2506 56.256L48.2596 82.8H39.4471V73.8Z" fill="#E0E0E0" />
    <path fill-rule="evenodd" clip-rule="evenodd" d="M10 60C10 32.4 32.4 10 60 10C87.6 10 110 32.4 110 60C110 87.6 87.6 110 60 110C32.4 110 10 87.6 10 60ZM100 60C100 37.95 82.05 20 60 20C37.95 20 20 37.95 20 60C20 82.05 37.95 100 60 100C82.05 100 100 82.05 100 60Z" fill="#E0E0E0" />
</svg>
